<svg xmlns="http://www.w3.org/2000/svg" viewBox="0 0 593.45 502.69">
  <defs>
    <style>
      .cls-1 {
        fill: gray;
      }
    </style>
  </defs>
  <g id="Layer_2" data-name="Layer 2">
    <g id="svg">
      <path id="ghost" class="cls-1" d="M303.14,469.76c-63.58,4.72-118.43-40-154.65-88.14-12.54-9.9-27.09,12.5-44.89,8-58-8.35-49.87-11.76-61.27,44.34C-.22,461.66-7.58,309,6.53,285.24,34.82,211.55,66,268,102.64,293.38c25.57-22.47-76.37-86.68-12.37-221.2C148.82-60.45,357.71,5,342.07,144.91c3.93,37.2-20,82.24,1.4,115.08,34.24,4.51,50.41-82.78,89-48C463,275.12,458.23,299.23,524,342.15c12.45,17.5-15.44,30-28.9,34.36-33.49,12.26-65.84-13.88-98.82-10.37-28,2.78-20.31,24.84,1.36,31.17,35.09,14.91,88.86-14.62,108,31,9.51,36.68,45.59,35.58,76,37.68,25.54,8.55,4.32,35.12-14.42,35-68.1,14-116.69-63.2-183.25-47.88C357.58,460.43,330.27,468.19,303.14,469.76ZM190.27,198.88c-12-64.36-40,13.4-20.07,37.53C189.27,253.91,193.38,208.62,190.27,198.88Zm-77-71.27C124.11,208.05,179.27,86.8,133,79c-16.82,7.53-19.8,32.39-19.69,48.65Zm90.25-25.76c-1.75,15.72,5.33,68.18,29,49.75,22.77-27.14-16.61-124.69-29-49.75Z"/>
    </g>
  </g>
</svg>
