<svg id="svg" xmlns="http://www.w3.org/2000/svg" viewBox="0 0 593.45 502.69">
  <defs>
    <style>
      .cls-1 {
        fill: gray;
      }
    </style>
  </defs>
  <path id="ghost" class="cls-1" d="M6.42,218.41c-63.58,4.72-118.43-40-154.65-88.14-12.54-9.9-27.09,12.5-44.89,8-58-8.35-49.87-11.76-61.27,44.34-42.55,27.7-49.91-125-35.8-148.72C-261.9-39.8-230.71,16.6-194.08,42c25.57-22.47-76.37-86.68-12.37-221.2C-147.9-311.8,61-246.36,45.35-106.44c3.93,37.2-20,82.24,1.4,115.08,34.24,4.51,50.41-82.78,89-48,30.54,63.13,25.76,87.24,91.57,130.16,12.45,17.5-15.44,30-28.9,34.36-33.49,12.26-65.84-13.88-98.82-10.37-28,2.78-20.31,24.84,1.36,31.17,35.09,14.91,88.86-14.62,108,31,9.51,36.68,45.59,35.58,76,37.68,25.54,8.55,4.32,35.12-14.42,35-68.1,14-116.69-63.2-183.25-47.88C60.86,209.08,33.55,216.84,6.42,218.41ZM-106.45-52.47c-12-64.36-40,13.4-20.07,37.53C-107.45,2.56-103.34-42.73-106.45-52.47Zm-77-71.27c10.84,80.44,66-40.81,19.74-48.65-16.82,7.53-19.8,32.39-19.69,48.65ZM-93.2-149.5c-1.75,15.72,5.33,68.18,29.05,49.75,22.77-27.14-16.61-124.69-29-49.75Z"/>
</svg>
