<svg id="svg" xmlns="http://www.w3.org/2000/svg" viewBox="0 0 593.45 502.69">
  <defs>
    <style>
      .cls-1 {
        fill: gray;
      }
    </style>
  </defs>
  <path id="ghost" class="cls-1" d="M703.87,641.77c-63.58,4.72-118.43-40-154.65-88.14-12.54-9.9-27.09,12.5-44.89,8-58-8.35-49.87-11.76-61.27,44.34-42.55,27.7-49.91-125-35.8-148.72,28.29-73.69,59.48-17.29,96.11,8.14C528.94,442.92,427,378.71,491,244.19,549.55,111.56,758.44,177,742.8,316.92c3.93,37.2-20,82.24,1.4,115.08,34.24,4.51,50.41-82.78,89-48,30.54,63.13,25.76,87.24,91.57,130.16,12.45,17.5-15.44,30-28.9,34.36-33.49,12.26-65.84-13.88-98.82-10.37-28,2.78-20.31,24.84,1.36,31.17,35.09,14.91,88.86-14.62,108,31C915.92,637,952,635.9,982.4,638c25.54,8.55,4.32,35.12-14.42,35-68.1,14-116.69-63.2-183.25-47.88C758.31,632.44,731,640.2,703.87,641.77ZM591,370.89c-12-64.36-40,13.4-20.07,37.53C590,425.92,594.11,380.63,591,370.89Zm-77-71.27c10.84,80.44,66-40.81,19.74-48.65C516.92,258.5,513.94,283.36,514.05,299.62Zm90.25-25.76c-1.75,15.72,5.33,68.18,29.05,49.75C656.07,296.47,616.69,198.92,604.3,273.86Z"/>
</svg>
